<svg width="121" height="66" viewBox="0 0 121 66" fill="none" xmlns="http://www.w3.org/2000/svg">
<path d="M27.2461 39.0605C27.2461 40.3301 27.1566 41.5345 26.9775 42.6738C26.7985 43.7969 26.5381 44.8385 26.1963 45.7988C25.8219 46.8568 25.3255 47.8171 24.707 48.6797C24.1048 49.5423 23.3887 50.2585 22.5586 50.8281C21.8099 51.3652 20.9635 51.7721 20.0195 52.0488C19.0918 52.3418 18.0664 52.4883 16.9434 52.4883C15.918 52.4883 14.9821 52.3581 14.1357 52.0977C13.3057 51.8535 12.557 51.4873 11.8896 50.999C11.5316 50.7549 11.1979 50.4863 10.8887 50.1934C10.5794 49.8841 10.2865 49.5505 10.0098 49.1924L9.69238 52H3.58887V14.5H10.376V27.9766C10.7015 27.6022 11.0514 27.2604 11.4258 26.9512C11.8001 26.6257 12.1989 26.349 12.6221 26.1211C13.2243 25.7793 13.8753 25.527 14.5752 25.3643C15.2913 25.1852 16.0645 25.0957 16.8945 25.0957C18.0339 25.0957 19.0755 25.2422 20.0195 25.5352C20.9798 25.8281 21.8343 26.2513 22.583 26.8047C23.1852 27.2279 23.7305 27.7406 24.2188 28.3428C24.707 28.9287 25.1383 29.5716 25.5127 30.2715C26.0986 31.3945 26.5299 32.6559 26.8066 34.0557C27.0996 35.4554 27.2461 36.9528 27.2461 38.5479V39.0605ZM20.459 38.5479C20.459 37.848 20.4264 37.1725 20.3613 36.5215C20.2962 35.8704 20.1904 35.2601 20.0439 34.6904C19.8649 34.0231 19.6289 33.429 19.3359 32.9082C19.0592 32.3711 18.6361 31.8828 18.0664 31.4434C17.6921 31.1667 17.2689 30.9632 16.7969 30.833C16.3249 30.6865 15.7878 30.6133 15.1855 30.6133C14.3717 30.6133 13.6556 30.7272 13.0371 30.9551C12.4186 31.1829 11.8896 31.5166 11.4502 31.9561C11.2386 32.1676 11.0433 32.4118 10.8643 32.6885C10.6852 32.9489 10.5225 33.2337 10.376 33.543V44.0654C10.5713 44.4723 10.791 44.8467 11.0352 45.1885C11.2956 45.514 11.5967 45.7988 11.9385 46.043C12.3454 46.3522 12.8174 46.5882 13.3545 46.751C13.9079 46.9137 14.5345 46.9951 15.2344 46.9951C15.8366 46.9951 16.3818 46.9219 16.8701 46.7754C17.3584 46.6289 17.7816 46.4255 18.1396 46.165C18.6442 45.807 19.0511 45.3431 19.3604 44.7734C19.6859 44.1875 19.93 43.5283 20.0928 42.7959C20.223 42.2588 20.3125 41.6729 20.3613 41.0381C20.4264 40.4033 20.459 39.7441 20.459 39.0605V38.5479ZM56.6162 38.4746C56.6162 40.7695 56.3477 42.7959 55.8105 44.5537C55.2897 46.2952 54.5329 47.752 53.54 48.9238C52.5472 50.112 51.3346 51.0072 49.9023 51.6094C48.4701 52.2116 46.8587 52.5127 45.0684 52.5127C43.2943 52.5127 41.6911 52.2116 40.2588 51.6094C38.8265 51.0072 37.6139 50.112 36.6211 48.9238C35.612 47.752 34.8307 46.2952 34.2773 44.5537C33.7402 42.7959 33.4717 40.7695 33.4717 38.4746V29.9785C33.4717 27.6836 33.7402 25.6654 34.2773 23.9238C34.8145 22.166 35.5876 20.693 36.5967 19.5049C37.5895 18.333 38.7939 17.446 40.21 16.8438C41.6423 16.2415 43.2454 15.9404 45.0195 15.9404C46.8099 15.9404 48.4212 16.2415 49.8535 16.8438C51.2858 17.446 52.5065 18.333 53.5156 19.5049C54.5085 20.693 55.2734 22.166 55.8105 23.9238C56.3477 25.6654 56.6162 27.6836 56.6162 29.9785V38.4746ZM40.3076 35.5449L49.7803 28.4893C49.7477 27.1546 49.6012 26.0153 49.3408 25.0713C49.0967 24.111 48.7305 23.346 48.2422 22.7764C47.8678 22.3206 47.404 21.987 46.8506 21.7754C46.3135 21.5475 45.7031 21.4336 45.0195 21.4336C44.2546 21.4336 43.5791 21.5801 42.9932 21.873C42.4235 22.1497 41.9434 22.5729 41.5527 23.1426C41.1296 23.7448 40.8122 24.526 40.6006 25.4863C40.4053 26.4466 40.3076 27.5859 40.3076 28.9043V32.835C40.3076 33.6162 40.3076 34.137 40.3076 34.3975C40.3076 34.6579 40.3076 35.0404 40.3076 35.5449ZM49.7803 39.5V35.374C49.7803 34.8369 49.7803 34.4463 49.7803 34.2021C49.7803 33.9417 49.7803 33.5755 49.7803 33.1035L40.3076 40.1348C40.3402 41.209 40.446 42.1611 40.625 42.9912C40.8203 43.8213 41.0889 44.513 41.4307 45.0664C41.8213 45.7337 42.3177 46.2301 42.9199 46.5557C43.5221 46.8812 44.2383 47.0439 45.0684 47.0439C45.8333 47.0439 46.5088 46.9056 47.0947 46.6289C47.6807 46.3359 48.1689 45.8965 48.5596 45.3105C48.9665 44.6921 49.2676 43.9027 49.4629 42.9424C49.6745 41.9658 49.7803 40.8184 49.7803 39.5ZM86.6455 38.4746C86.6455 40.7695 86.377 42.7959 85.8398 44.5537C85.319 46.2952 84.5622 47.752 83.5693 48.9238C82.5765 50.112 81.3639 51.0072 79.9316 51.6094C78.4993 52.2116 76.888 52.5127 75.0977 52.5127C73.3236 52.5127 71.7204 52.2116 70.2881 51.6094C68.8558 51.0072 67.6432 50.112 66.6504 48.9238C65.6413 47.752 64.86 46.2952 64.3066 44.5537C63.7695 42.7959 63.501 40.7695 63.501 38.4746V29.9785C63.501 27.6836 63.7695 25.6654 64.3066 23.9238C64.8438 22.166 65.6169 20.693 66.626 19.5049C67.6188 18.333 68.8232 17.446 70.2393 16.8438C71.6715 16.2415 73.2747 15.9404 75.0488 15.9404C76.8392 15.9404 78.4505 16.2415 79.8828 16.8438C81.3151 17.446 82.5358 18.333 83.5449 19.5049C84.5378 20.693 85.3027 22.166 85.8398 23.9238C86.377 25.6654 86.6455 27.6836 86.6455 29.9785V38.4746ZM70.3369 35.5449L79.8096 28.4893C79.777 27.1546 79.6305 26.0153 79.3701 25.0713C79.126 24.111 78.7598 23.346 78.2715 22.7764C77.8971 22.3206 77.4333 21.987 76.8799 21.7754C76.3428 21.5475 75.7324 21.4336 75.0488 21.4336C74.2839 21.4336 73.6084 21.5801 73.0225 21.873C72.4528 22.1497 71.9727 22.5729 71.582 23.1426C71.1589 23.7448 70.8415 24.526 70.6299 25.4863C70.4346 26.4466 70.3369 27.5859 70.3369 28.9043V32.835C70.3369 33.6162 70.3369 34.137 70.3369 34.3975C70.3369 34.6579 70.3369 35.0404 70.3369 35.5449ZM79.8096 39.5V35.374C79.8096 34.8369 79.8096 34.4463 79.8096 34.2021C79.8096 33.9417 79.8096 33.5755 79.8096 33.1035L70.3369 40.1348C70.3695 41.209 70.4753 42.1611 70.6543 42.9912C70.8496 43.8213 71.1182 44.513 71.46 45.0664C71.8506 45.7337 72.347 46.2301 72.9492 46.5557C73.5514 46.8812 74.2676 47.0439 75.0977 47.0439C75.8626 47.0439 76.5381 46.9056 77.124 46.6289C77.71 46.3359 78.1982 45.8965 78.5889 45.3105C78.9958 44.6921 79.2969 43.9027 79.4922 42.9424C79.7038 41.9658 79.8096 40.8184 79.8096 39.5ZM105.981 19.1143V25.584H115.845V30.5889H105.981V41.9414C105.981 42.9017 106.087 43.7074 106.299 44.3584C106.527 44.9932 106.844 45.4977 107.251 45.8721C107.658 46.2627 108.146 46.5394 108.716 46.7021C109.302 46.8649 109.953 46.9463 110.669 46.9463C111.19 46.9463 111.719 46.9219 112.256 46.873C112.809 46.8242 113.338 46.7591 113.843 46.6777C114.331 46.6126 114.787 46.5394 115.21 46.458C115.649 46.3766 116.024 46.2952 116.333 46.2139L116.992 50.877C116.52 51.1536 115.967 51.3978 115.332 51.6094C114.697 51.8047 114.022 51.9674 113.306 52.0977C112.59 52.2279 111.841 52.3255 111.06 52.3906C110.295 52.472 109.538 52.5127 108.789 52.5127C107.34 52.5127 106.022 52.3255 104.834 51.9512C103.662 51.5605 102.661 50.9583 101.831 50.1445C100.985 49.347 100.334 48.3298 99.8779 47.0928C99.4222 45.8395 99.1943 44.3421 99.1943 42.6006V30.5889H93.1641V25.584H99.1943V19.1143H105.981Z" fill="white"/>
<mask id="mask0_9_26" style="mask-type:alpha" maskUnits="userSpaceOnUse" x="3" y="14" width="114" height="39">
<path d="M27.2461 39.0605C27.2461 40.3301 27.1566 41.5345 26.9775 42.6738C26.7985 43.7969 26.5381 44.8385 26.1963 45.7988C25.8219 46.8568 25.3255 47.8171 24.707 48.6797C24.1048 49.5423 23.3887 50.2585 22.5586 50.8281C21.8099 51.3652 20.9635 51.7721 20.0195 52.0488C19.0918 52.3418 18.0664 52.4883 16.9434 52.4883C15.918 52.4883 14.9821 52.3581 14.1357 52.0977C13.3057 51.8535 12.557 51.4873 11.8896 50.999C11.5316 50.7549 11.1979 50.4863 10.8887 50.1934C10.5794 49.8841 10.2865 49.5505 10.0098 49.1924L9.69238 52H3.58887V14.5H10.376V27.9766C10.7015 27.6022 11.0514 27.2604 11.4258 26.9512C11.8001 26.6257 12.1989 26.349 12.6221 26.1211C13.2243 25.7793 13.8753 25.527 14.5752 25.3643C15.2913 25.1852 16.0645 25.0957 16.8945 25.0957C18.0339 25.0957 19.0755 25.2422 20.0195 25.5352C20.9798 25.8281 21.8343 26.2513 22.583 26.8047C23.1852 27.2279 23.7305 27.7406 24.2188 28.3428C24.707 28.9287 25.1383 29.5716 25.5127 30.2715C26.0986 31.3945 26.5299 32.6559 26.8066 34.0557C27.0996 35.4554 27.2461 36.9528 27.2461 38.5479V39.0605ZM20.459 38.5479C20.459 37.848 20.4264 37.1725 20.3613 36.5215C20.2962 35.8704 20.1904 35.2601 20.0439 34.6904C19.8649 34.0231 19.6289 33.429 19.3359 32.9082C19.0592 32.3711 18.6361 31.8828 18.0664 31.4434C17.6921 31.1667 17.2689 30.9632 16.7969 30.833C16.3249 30.6865 15.7878 30.6133 15.1855 30.6133C14.3717 30.6133 13.6556 30.7272 13.0371 30.9551C12.4186 31.1829 11.8896 31.5166 11.4502 31.9561C11.2386 32.1676 11.0433 32.4118 10.8643 32.6885C10.6852 32.9489 10.5225 33.2337 10.376 33.543V44.0654C10.5713 44.4723 10.791 44.8467 11.0352 45.1885C11.2956 45.514 11.5967 45.7988 11.9385 46.043C12.3454 46.3522 12.8174 46.5882 13.3545 46.751C13.9079 46.9137 14.5345 46.9951 15.2344 46.9951C15.8366 46.9951 16.3818 46.9219 16.8701 46.7754C17.3584 46.6289 17.7816 46.4255 18.1396 46.165C18.6442 45.807 19.0511 45.3431 19.3604 44.7734C19.6859 44.1875 19.93 43.5283 20.0928 42.7959C20.223 42.2588 20.3125 41.6729 20.3613 41.0381C20.4264 40.4033 20.459 39.7441 20.459 39.0605V38.5479ZM56.6162 38.4746C56.6162 40.7695 56.3477 42.7959 55.8105 44.5537C55.2897 46.2952 54.5329 47.752 53.54 48.9238C52.5472 50.112 51.3346 51.0072 49.9023 51.6094C48.4701 52.2116 46.8587 52.5127 45.0684 52.5127C43.2943 52.5127 41.6911 52.2116 40.2588 51.6094C38.8265 51.0072 37.6139 50.112 36.6211 48.9238C35.612 47.752 34.8307 46.2952 34.2773 44.5537C33.7402 42.7959 33.4717 40.7695 33.4717 38.4746V29.9785C33.4717 27.6836 33.7402 25.6654 34.2773 23.9238C34.8145 22.166 35.5876 20.693 36.5967 19.5049C37.5895 18.333 38.7939 17.446 40.21 16.8438C41.6423 16.2415 43.2454 15.9404 45.0195 15.9404C46.8099 15.9404 48.4212 16.2415 49.8535 16.8438C51.2858 17.446 52.5065 18.333 53.5156 19.5049C54.5085 20.693 55.2734 22.166 55.8105 23.9238C56.3477 25.6654 56.6162 27.6836 56.6162 29.9785V38.4746ZM40.3076 35.5449L49.7803 28.4893C49.7477 27.1546 49.6012 26.0153 49.3408 25.0713C49.0967 24.111 48.7305 23.346 48.2422 22.7764C47.8678 22.3206 47.404 21.987 46.8506 21.7754C46.3135 21.5475 45.7031 21.4336 45.0195 21.4336C44.2546 21.4336 43.5791 21.5801 42.9932 21.873C42.4235 22.1497 41.9434 22.5729 41.5527 23.1426C41.1296 23.7448 40.8122 24.526 40.6006 25.4863C40.4053 26.4466 40.3076 27.5859 40.3076 28.9043V32.835C40.3076 33.6162 40.3076 34.137 40.3076 34.3975C40.3076 34.6579 40.3076 35.0404 40.3076 35.5449ZM49.7803 39.5V35.374C49.7803 34.8369 49.7803 34.4463 49.7803 34.2021C49.7803 33.9417 49.7803 33.5755 49.7803 33.1035L40.3076 40.1348C40.3402 41.209 40.446 42.1611 40.625 42.9912C40.8203 43.8213 41.0889 44.513 41.4307 45.0664C41.8213 45.7337 42.3177 46.2301 42.9199 46.5557C43.5221 46.8812 44.2383 47.0439 45.0684 47.0439C45.8333 47.0439 46.5088 46.9056 47.0947 46.6289C47.6807 46.3359 48.1689 45.8965 48.5596 45.3105C48.9665 44.6921 49.2676 43.9027 49.4629 42.9424C49.6745 41.9658 49.7803 40.8184 49.7803 39.5ZM86.6455 38.4746C86.6455 40.7695 86.377 42.7959 85.8398 44.5537C85.319 46.2952 84.5622 47.752 83.5693 48.9238C82.5765 50.112 81.3639 51.0072 79.9316 51.6094C78.4993 52.2116 76.888 52.5127 75.0977 52.5127C73.3236 52.5127 71.7204 52.2116 70.2881 51.6094C68.8558 51.0072 67.6432 50.112 66.6504 48.9238C65.6413 47.752 64.86 46.2952 64.3066 44.5537C63.7695 42.7959 63.501 40.7695 63.501 38.4746V29.9785C63.501 27.6836 63.7695 25.6654 64.3066 23.9238C64.8438 22.166 65.6169 20.693 66.626 19.5049C67.6188 18.333 68.8232 17.446 70.2393 16.8438C71.6715 16.2415 73.2747 15.9404 75.0488 15.9404C76.8392 15.9404 78.4505 16.2415 79.8828 16.8438C81.3151 17.446 82.5358 18.333 83.5449 19.5049C84.5378 20.693 85.3027 22.166 85.8398 23.9238C86.377 25.6654 86.6455 27.6836 86.6455 29.9785V38.4746ZM70.3369 35.5449L79.8096 28.4893C79.777 27.1546 79.6305 26.0153 79.3701 25.0713C79.126 24.111 78.7598 23.346 78.2715 22.7764C77.8971 22.3206 77.4333 21.987 76.8799 21.7754C76.3428 21.5475 75.7324 21.4336 75.0488 21.4336C74.2839 21.4336 73.6084 21.5801 73.0225 21.873C72.4528 22.1497 71.9727 22.5729 71.582 23.1426C71.1589 23.7448 70.8415 24.526 70.6299 25.4863C70.4346 26.4466 70.3369 27.5859 70.3369 28.9043V32.835C70.3369 33.6162 70.3369 34.137 70.3369 34.3975C70.3369 34.6579 70.3369 35.0404 70.3369 35.5449ZM79.8096 39.5V35.374C79.8096 34.8369 79.8096 34.4463 79.8096 34.2021C79.8096 33.9417 79.8096 33.5755 79.8096 33.1035L70.3369 40.1348C70.3695 41.209 70.4753 42.1611 70.6543 42.9912C70.8496 43.8213 71.1182 44.513 71.46 45.0664C71.8506 45.7337 72.347 46.2301 72.9492 46.5557C73.5514 46.8812 74.2676 47.0439 75.0977 47.0439C75.8626 47.0439 76.5381 46.9056 77.124 46.6289C77.71 46.3359 78.1982 45.8965 78.5889 45.3105C78.9958 44.6921 79.2969 43.9027 79.4922 42.9424C79.7038 41.9658 79.8096 40.8184 79.8096 39.5ZM105.981 19.1143V25.584H115.845V30.5889H105.981V41.9414C105.981 42.9017 106.087 43.7074 106.299 44.3584C106.527 44.9932 106.844 45.4977 107.251 45.8721C107.658 46.2627 108.146 46.5394 108.716 46.7021C109.302 46.8649 109.953 46.9463 110.669 46.9463C111.19 46.9463 111.719 46.9219 112.256 46.873C112.809 46.8242 113.338 46.7591 113.843 46.6777C114.331 46.6126 114.787 46.5394 115.21 46.458C115.649 46.3766 116.024 46.2952 116.333 46.2139L116.992 50.877C116.52 51.1536 115.967 51.3978 115.332 51.6094C114.697 51.8047 114.022 51.9674 113.306 52.0977C112.59 52.2279 111.841 52.3255 111.06 52.3906C110.295 52.472 109.538 52.5127 108.789 52.5127C107.34 52.5127 106.022 52.3255 104.834 51.9512C103.662 51.5605 102.661 50.9583 101.831 50.1445C100.985 49.347 100.334 48.3298 99.8779 47.0928C99.4222 45.8395 99.1943 44.3421 99.1943 42.6006V30.5889H93.1641V25.584H99.1943V19.1143H105.981Z" fill="white"/>
</mask>
<g mask="url(#mask0_9_26)">
<rect x="31" width="62" height="66" fill="#808CFF"/>
</g>
</svg>
